#N canvas 544 155 310 157 12;
#X floatatom 87 42 3 0 0 0 - - - 0;
#X floatatom 128 42 3 0 0 0 - - - 0;
#X floatatom 87 102 3 0 0 0 - - - 0;
#X obj 87 73 a1new;
#X msg 32 36 3;
#X msg 170 46 3;
#X connect 0 0 3 0;
#X connect 1 0 3 1;
#X connect 3 0 2 0;
#X connect 4 0 3 0;
#X connect 5 0 3 1;
